<?xml version="1.0" standalone="no"?>
<!DOCTYPE svg PUBLIC "-//W3C//DTD SVG 20010904//EN"
 "http://www.w3.org/TR/2001/REC-SVG-20010904/DTD/svg10.dtd">
<svg version="1.0" xmlns="http://www.w3.org/2000/svg"
 width="780.000000pt" height="775.000000pt" viewBox="0 0 780.000000 775.000000"
 preserveAspectRatio="xMidYMid meet">

<g transform="translate(0.000000,775.000000) scale(0.100000,-0.100000)"
fill="#000000" stroke="none">
<path d="M7375 7417 c-151 -153 -345 -358 -1331 -1408 -1178 -1254 -1271
-1353 -1630 -1729 -154 -162 -339 -356 -409 -430 -413 -435 -896 -930 -907
-930 -7 0 -153 121 -913 756 -289 242 -333 274 -371 274 -19 0 -47 -6 -62 -14
-15 -8 -100 -89 -190 -180 -155 -157 -201 -219 -202 -269 0 -40 48 -103 253
-329 118 -130 346 -385 508 -565 161 -180 352 -393 424 -473 72 -80 196 -220
277 -311 175 -198 193 -214 265 -235 78 -23 154 -14 243 27 84 39 151 106 255
255 38 54 218 308 400 564 389 546 581 818 755 1065 69 99 216 306 326 460
110 154 289 408 399 565 109 157 258 368 330 470 72 102 205 291 295 420 90
129 259 370 375 535 116 165 253 361 305 435 52 74 200 286 330 470 130 184
254 360 275 390 22 30 81 115 133 188 51 73 91 139 89 146 -3 7 -16 16 -29 20
-20 5 -46 -17 -193 -167z"/>
<path d="M1235 6064 c-411 -69 -763 -320 -943 -671 -64 -126 -94 -211 -123
-353 l-24 -115 0 -1810 c0 -1728 1 -1815 19 -1910 101 -537 533 -947 1088
-1031 84 -12 360 -14 1930 -11 1722 2 1838 4 1908 21 263 62 450 166 641 356
202 200 319 428 365 709 12 71 14 392 13 1856 0 1668 -1 1769 -17 1745 -9 -13
-86 -121 -171 -240 -85 -118 -222 -314 -305 -435 l-151 -220 -5 -1305 -5
-1305 -30 -85 c-75 -217 -245 -375 -470 -436 -68 -18 -131 -19 -1825 -19
-1973 0 -1799 -7 -1970 76 -159 78 -293 244 -341 425 -21 79 -21 80 -20 1817
2 1679 3 1740 21 1813 60 233 240 416 466 474 75 20 117 20 1853 20 1553 0
1784 -2 1840 -15 61 -15 66 -14 81 2 9 10 105 113 213 229 108 116 206 223
217 237 l20 25 -83 41 c-106 52 -237 94 -356 115 -85 14 -282 16 -1925 15
-1489 -1 -1846 -4 -1911 -15z"/>
</g>
</svg>
